<svg width="31" height="20" viewBox="0 0 31 20" fill="none" xmlns="http://www.w3.org/2000/svg">
<path fill-rule="evenodd" clip-rule="evenodd" d="M29.9982 1.343C30.2105 0.5695 29.9982 0 28.9812 0H25.6232C24.7686 0 24.3746 0.491572 24.161 1.03414C24.161 1.03414 22.4532 5.56186 20.0342 8.50286C19.2513 9.35564 18.8956 9.62628 18.4684 9.62628C18.2548 9.62628 17.9336 9.35564 17.9336 8.58078V1.343C17.9336 0.413644 17.6983 0 16.987 0H11.7063C11.1729 0 10.8518 0.430644 10.8518 0.840072C10.8518 1.71986 12.0619 1.92386 12.186 4.40014V9.78064C12.186 10.9608 11.9903 11.1746 11.563 11.1746C10.4245 11.1746 7.65499 6.62578 6.01116 1.42093C5.6926 0.408 5.37023 0 4.51187 0H1.15132C0.191886 0 0 0.491572 0 1.03414C0 2.00036 1.13853 6.8 5.30244 13.1481C8.07837 17.4831 11.9865 19.8334 15.5466 19.8334C17.6816 19.8334 17.9452 19.312 17.9452 18.4124V15.1356C17.9452 14.0916 18.1473 13.8834 18.824 13.8834C19.3229 13.8834 20.1761 14.1554 22.1692 16.2449C24.4463 18.7226 24.8211 19.8334 26.1029 19.8334H29.4609C30.4203 19.8334 30.9013 19.312 30.625 18.2806C30.3206 17.255 29.2332 15.7661 27.7915 13.9995C27.0086 12.9936 25.8342 11.9099 25.4774 11.3674C24.9797 10.6718 25.1217 10.3615 25.4774 9.74243C25.4774 9.74243 29.5709 3.47228 29.9969 1.343H29.9982Z" fill="white"/>
</svg>
