<svg width="20" height="21" viewBox="0 0 20 21" fill="none" xmlns="http://www.w3.org/2000/svg">
<g clip-path="url(#clip0_1_81)">
<mask id="mask0_1_81" style="mask-type:luminance" maskUnits="userSpaceOnUse" x="0" y="0" width="20" height="21">
<path d="M20 0H0V21H20V0Z" fill="white"/>
</mask>
<g mask="url(#mask0_1_81)">
<path d="M11.9286 12.525C10.3571 14.2275 10.2429 16.35 10.1071 21C14.2357 21 17.0857 20.985 18.5571 19.485C19.9857 17.94 20 14.805 20 10.6125C15.5714 10.7625 13.55 10.875 11.9286 12.525ZM0 10.6125C0 14.805 0.0142857 17.94 1.44286 19.485C2.91429 20.985 5.76429 21 9.89286 21C9.75 16.35 9.64286 14.2275 8.07143 12.525C6.45 10.875 4.42857 10.755 0 10.6125ZM9.89286 0C5.77143 0 2.91429 0.015 1.44286 1.515C0.0142857 3.06 0 6.195 0 10.3875C4.42857 10.2375 6.45 10.125 8.07143 8.475C9.64286 6.7725 9.75714 4.65 9.89286 0ZM11.9286 8.475C10.3571 6.7725 10.2429 4.65 10.1071 0C14.2357 0 17.0857 0.015 18.5571 1.515C19.9857 3.06 20 6.195 20 10.3875C15.5714 10.2375 13.55 10.125 11.9286 8.475Z" fill="white"/>
<path d="M20 10.6125V10.3875C15.5714 10.2375 13.55 10.125 11.9286 8.475C10.3571 6.7725 10.2429 4.65 10.1071 0H9.89286C9.75 4.65 9.64286 6.7725 8.07143 8.475C6.45 10.125 4.42857 10.245 0 10.3875V10.6125C4.42857 10.7625 6.45 10.875 8.07143 12.525C9.64286 14.2275 9.75714 16.35 9.89286 21H10.1071C10.25 16.35 10.3571 14.2275 11.9286 12.525C13.55 10.875 15.5714 10.755 20 10.6125Z" fill="#1C1C1C"/>
</g>
</g>
<defs>
<clipPath id="clip0_1_81">
<rect width="20" height="21" fill="white"/>
</clipPath>
</defs>
</svg>
