<svg width="27" height="21" viewBox="0 0 27 21" fill="none" xmlns="http://www.w3.org/2000/svg">
<path d="M26.4365 3.28041C26.2828 2.64519 25.9814 2.06591 25.5626 1.60053C25.1437 1.13516 24.6221 0.800023 24.0499 0.628662C21.9435 1.27562e-07 13.5 0 13.5 0C13.5 0 5.05647 -1.27562e-07 2.95011 0.625319C2.37763 0.796124 1.85572 1.13107 1.4368 1.59654C1.01788 2.06199 0.716702 2.64157 0.563505 3.27707C-1.14952e-07 5.61783 0 10.5 0 10.5C0 10.5 -1.14952e-07 15.3822 0.563505 17.7196C0.873884 19.0104 1.78996 20.0269 2.95011 20.3713C5.05647 21 13.5 21 13.5 21C13.5 21 21.9435 21 24.0499 20.3713C25.2131 20.0269 26.1261 19.0104 26.4365 17.7196C27 15.3822 27 10.5 27 10.5C27 10.5 27 5.61783 26.4365 3.28041ZM10.8181 14.9809V6.01911L17.8092 10.4666L10.8181 14.9809Z" fill="white"/>
</svg>
